<svg xmlns="http://www.w3.org/2000/svg" width="1200" height="260" viewBox="0 0 1200 260" role="img" aria-labelledby="title description">
  <title id="title">Marin Jursic</title>
  <desc id="description">Senior Full-Stack Engineer, Applied AI Researcher, and Data Scientist</desc>
  <defs>
    <linearGradient id="background" x1="0" y1="0" x2="1" y2="0">
      <stop offset="0" stop-color="#0b1120"/>
      <stop offset=".68" stop-color="#111827"/>
      <stop offset="1" stop-color="#172033"/>
    </linearGradient>
    <linearGradient id="accent" x1="0" y1="0" x2="1" y2="0">
      <stop offset="0" stop-color="#60a5fa"/>
      <stop offset="1" stop-color="#38bdf8"/>
    </linearGradient>
    <clipPath id="frame">
      <rect width="1200" height="260" rx="18"/>
    </clipPath>
  </defs>
  <g clip-path="url(#frame)">
    <rect width="1200" height="260" fill="url(#background)"/>
    <rect width="6" height="260" fill="url(#accent)"/>

    <g fill="none" stroke="#94a3b8" stroke-opacity=".13">
      <path d="M838 52H1147"/>
      <path d="M838 91H1094"/>
      <path d="M838 130H1167"/>
      <path d="M838 169H1118"/>
      <path d="M838 208H1152"/>
    </g>
    <g fill="none" stroke="#60a5fa" stroke-opacity=".42" stroke-width="2">
      <path d="M858 183L916 145L975 160L1038 91L1097 116L1156 67"/>
    </g>
    <g fill="#60a5fa">
      <circle cx="858" cy="183" r="3"/>
      <circle cx="916" cy="145" r="3"/>
      <circle cx="975" cy="160" r="3"/>
      <circle cx="1038" cy="91" r="3"/>
      <circle cx="1097" cy="116" r="3"/>
      <circle cx="1156" cy="67" r="3"/>
    </g>

    <text x="58" y="57" fill="#60a5fa" font-family="-apple-system, BlinkMacSystemFont, 'Segoe UI', Arial, sans-serif" font-size="14" font-weight="700" letter-spacing="2.4">ENGINEERING · APPLIED AI · DATA</text>
    <text x="58" y="122" fill="#f8fafc" font-family="-apple-system, BlinkMacSystemFont, 'Segoe UI', Arial, sans-serif" font-size="52" font-weight="700" letter-spacing="-.8">Marin Jursic</text>
    <text x="58" y="166" fill="#e2e8f0" font-family="-apple-system, BlinkMacSystemFont, 'Segoe UI', Arial, sans-serif" font-size="22" font-weight="500">Senior Full-Stack Engineer · Applied AI Researcher · Data Scientist</text>
    <text x="58" y="207" fill="#94a3b8" font-family="-apple-system, BlinkMacSystemFont, 'Segoe UI', Arial, sans-serif" font-size="16" font-weight="500" letter-spacing=".35">Production systems · Model evaluation · Data-intensive products</text>
  </g>
</svg>
